# xmcd
#
# Track frame offsets: 
#        150
#        16529
#        34418
#        43223
#        54774
#        66892
#        80834
#        93683
#        107357
#        120512
#        136566
#        156173
#        172030
#        193904
#        210034
#        224701
#        237417
#        249833
#        260713
#        273426
#        288235
#        312684
#
# Disc length: 4507 seconds
#
# Revision: 0
# Processed by: cddbd v1.4PL0 Copyright (c) Steve Scherf et al.
# Submitted via: ExactAudioCopy v0.90b3
#
DISCID=3f119916
DTITLE=Neil Young - Old Ways 1 and 3
DYEAR=1900
DGENRE=Country
TTITLE0=Old Ways
TTITLE1=Depression Blues
TTITLE2=That's Alright, Mama
TTITLE3=Cry, Cry, Cry
TTITLE4=Mystery Train
TTITLE5=Wonderin'
TTITLE6=California Sunset
TTITLE7=My Boy
TTITLE8=Are There Anymore Real Cowboys
TTITLE9=Silver and Gold
TTITLE10=Beautiful Gluebird
TTITLE11=Leavin' The Top 40 Behind
TTITLE12=Nothin' Is Perfect
TTITLE13=Time Off For Good Behavior
TTITLE14=Silver and Gold (Version 1)
TTITLE15=Good Phone (Let Your Fingers Do The Walkin')
TTITLE16=Silver and Gold (Version2)
TTITLE17=Your Love Again
TTITLE18=Amber Jean
TTITLE19=Thank God I'm On The Road Tonight (Hillbilly Band)
TTITLE20=Interstate
TTITLE21=Grey Riders
EXTD=
EXTT0=
EXTT1=
EXTT2=
EXTT3=
EXTT4=
EXTT5=
EXTT6=
EXTT7=
EXTT8=
EXTT9=
EXTT10=
EXTT11=
EXTT12=
EXTT13=
EXTT14=
EXTT15=
EXTT16=
EXTT17=
EXTT18=
EXTT19=
EXTT20=
EXTT21=
PLAYORDER=
